PathFileType	4	(X/Y/Z)	./resultDataOpenSim/trcMotMarkerGrf/sub10/qtm-13-06.trc
DataRate	CameraRate	NumFrames	NumMarkers	Units	OrigDataRate	OrigDataStartFrame	OrigNumFrames
250.000000	250.000000	14	24	m	250.000000	129	513
Frame#	Time	L.Toe.Tip			R.Toe.Tip			L.Ankle.Lat			R.Ankle.Lat			L.Ankle.Med			R.Ankle.Med			L.Heel			R.Heel			L.Knee.Lat			R.Knee.Lat			L.Knee.Med			R.Knee.Med			L.Thigh.Upper			R.Thigh.Upper			L.ASIS			R.ASIS			V.Sacral			L.Acromium			R.Acromium			C7			L.Elbow			R.Elbow			L.Wrist.Lat			R.Wrist.Lat
		X1	Y1	Z1	X2	Y2	Z2	X3	Y3	Z3	X4	Y4	Z4	X5	Y5	Z5	X6	Y6	Z6	X7	Y7	Z7	X8	Y8	Z8	X9	Y9	Z9	X10	Y10	Z10	X11	Y11	Z11	X12	Y12	Z12	X13	Y13	Z13	X14	Y14	Z14	X15	Y15	Z15	X16	Y16	Z16	X17	Y17	Z17	X18	Y18	Z18	X19	Y19	Z19	X20	Y20	Z20	X21	Y21	Z21	X22	Y22	Z22	X23	Y23	Z23	X24	Y24	Z24

129	0.512	-0.21726075	0.088773889	-0.16074937	-0.70828355	0.038942849	0.002766004	-0.35645196	0.084809564	-0.15881381	-0.84667848	0.053933946	0.039575513	-0.33211874	0.11760434	-0.081499512	-0.83029168	0.081853607	-0.044665035	-0.40103628	0.04568123	-0.09535396	-0.90042048	0.031026773	-0.0082485317	-0.43131037	0.46937038	-0.18472005	-0.72676936	0.44196963	0.089114937	-0.40024601	0.45016541	-0.06700012	-0.72226194	0.44735231	-0.041245445	-0.5916907	0.81748053	-0.2279741	-0.66865791	0.85186856	0.15022961	-0.55491015	0.93048947	-0.1564921	-0.58539873	0.94111306	0.08857693	-0.76457673	0.93575489	-0.064939446	-0.65361597	1.4059057	-0.18981927	-0.65485659	1.3914269	0.13661451	-0.7421876	1.4244446	-0.030455275	-0.76602599	1.0807437	-0.25479815	-0.65071025	1.0349446	0.19834099	-0.63810864	0.8727244	-0.2808274	-0.44634418	0.89493832	0.1746738
130	0.516	-0.2018347	0.092148234	-0.15991336	-0.70823719	0.038899887	0.0028217011	-0.34110465	0.084846438	-0.15771578	-0.84734237	0.053975151	0.039641233	-0.31722577	0.1187792	-0.081051098	-0.83007987	0.081841506	-0.044747303	-0.38423145	0.045098486	-0.094165829	-0.90041583	0.031175966	-0.0084058926	-0.424742	0.4677691	-0.18506833	-0.72429693	0.44127204	0.089096796	-0.39380925	0.44871725	-0.067325873	-0.71964314	0.44654621	-0.041330479	-0.5853617	0.81618116	-0.22797026	-0.66508267	0.85114796	0.15073205	-0.54838155	0.92933976	-0.15630708	-0.58047114	0.94002558	0.088581882	-0.76104791	0.93528049	-0.063666061	-0.64812412	1.4045699	-0.18985179	-0.64965048	1.3901012	0.1365591	-0.73679675	1.4231068	-0.030561644	-0.76184861	1.079865	-0.25450077	-0.64361584	1.033437	0.1983434	-0.6350336	0.87128695	-0.28133737	-0.43783205	0.8956021	0.17316346
131	0.52	-0.1869465	0.095434398	-0.15901137	-0.70819484	0.038864497	0.0028834731	-0.32629417	0.084789535	-0.1563623	-0.84793003	0.054040696	0.039692843	-0.30279074	0.12002261	-0.080682873	-0.82991364	0.081797433	-0.044916403	-0.36772732	0.044408009	-0.092985952	-0.90041619	0.031371188	-0.0087153105	-0.41809112	0.46622919	-0.18538154	-0.72171651	0.44053392	0.089064313	-0.38733121	0.44736936	-0.06760169	-0.71690373	0.44563862	-0.04142865	-0.57890737	0.81481863	-0.22793345	-0.66167242	0.85042461	0.15134466	-0.54171379	0.92819772	-0.15605382	-0.57552512	0.9388987	0.088599857	-0.75718452	0.93461902	-0.062960431	-0.64262032	1.4032021	-0.18990274	-0.64444296	1.3887291	0.136506	-0.73139925	1.4217119	-0.030683235	-0.75765337	1.0789469	-0.25424175	-0.63656702	1.0318992	0.19831572	-0.63196154	0.8698134	-0.28183179	-0.42938522	0.89623217	0.17165723
132	0.524	-0.17260349	0.098637281	-0.15809854	-0.70815931	0.038830861	0.0029476378	-0.31197511	0.084706037	-0.15494904	-0.84823428	0.054124366	0.03969971	-0.28885355	0.12129298	-0.080383357	-0.82977253	0.081726333	-0.04514496	-0.35164006	0.043656444	-0.091937035	-0.90041485	0.031561268	-0.0090067531	-0.41134735	0.46476663	-0.18560798	-0.71905224	0.43976416	0.088984646	-0.3808204	0.44613609	-0.067795854	-0.71391459	0.44465611	-0.041512328	-0.57232042	0.81339735	-0.22788329	-0.65791424	0.84961051	0.15154265	-0.5349419	0.92706358	-0.15573865	-0.57056706	0.93773314	0.088644371	-0.75237577	0.9336758	-0.063465657	-0.63714382	1.4018209	-0.19000046	-0.6392346	1.3873049	0.13644798	-0.72599533	1.4202733	-0.030827597	-0.75343172	1.0779861	-0.25401638	-0.62956584	1.0303282	0.19825733	-0.62892593	0.86830988	-0.28232072	-0.42100055	0.8968265	0.17015362
133	0.528	-0.15880799	0.10178131	-0.15718298	-0.70813116	0.038797084	0.0030109655	-0.29808853	0.084745862	-0.15383146	-0.84826775	0.054209968	0.03965651	-0.27546627	0.12254001	-0.080147356	-0.8296156	0.08164571	-0.045367198	-0.3361881	0.043032304	-0.091146767	-0.90040891	0.03173158	-0.0092311313	-0.40451261	0.46338221	-0.18570191	-0.71630867	0.43897899	0.088851544	-0.37426499	0.44502185	-0.067883683	-0.71059649	0.44361771	-0.041552034	-0.56561282	0.81191548	-0.22784223	-0.65356031	0.8486664	0.1510946	-0.52816291	0.92589844	-0.15537246	-0.5655998	0.93652393	0.088714987	-0.74654368	0.93254008	-0.065040744	-0.63172493	1.4004403	-0.19016901	-0.63403109	1.3858369	0.13638089	-0.72058228	1.4188019	-0.030996271	-0.74917733	1.0769814	-0.25380784	-0.62260452	1.0287195	0.19816378	-0.62594469	0.86677598	-0.28281094	-0.41267782	0.89738076	0.16865517
134	0.532	-0.14556383	0.10489259	-0.15623855	-0.70810845	0.038762187	0.003070734	-0.28460769	0.084988865	-0.15320138	-0.84813694	0.054290618	0.03956879	-0.26267962	0.12370128	-0.079986717	-0.82942333	0.081569896	-0.045539995	-0.32153872	0.042634259	-0.090728532	-0.90039794	0.031896374	-0.0094201445	-0.39761569	0.46206641	-0.18565116	-0.71350095	0.4381808	0.088665057	-0.3676314	0.44403334	-0.067845069	-0.70701378	0.4425275	-0.04156819	-0.55880242	0.81037119	-0.22781281	-0.64878378	0.84761754	0.15020398	-0.52145929	0.92465535	-0.15496405	-0.56062457	0.93526744	0.088802128	-0.73979235	0.93126885	-0.067191379	-0.62634363	1.3990495	-0.19039584	-0.62883011	1.3843385	0.13630291	-0.7151649	1.4173009	-0.031184616	-0.74489221	1.0759379	-0.25360854	-0.61568153	1.0270797	0.19803865	-0.62297626	0.86521421	-0.28330149	-0.40442042	0.89789185	0.16716642
135	0.536	-0.13286975	0.10796071	-0.15526094	-0.70808719	0.038725498	0.0031246254	-0.27155546	0.085394245	-0.15299464	-0.84792968	0.054371304	0.039444657	-0.2505169	0.12471384	-0.079909964	-0.82920591	0.081502044	-0.045670086	-0.30772306	0.042382666	-0.090793407	-0.90038058	0.032074241	-0.0096093508	-0.39070226	0.4608097	-0.18548025	-0.71068313	0.43734631	0.088408541	-0.36089679	0.44316883	-0.067675756	-0.70332027	0.44138747	-0.041637273	-0.55193241	0.8087616	-0.22777901	-0.64388506	0.84650372	0.14919239	-0.51483626	0.92331116	-0.15455192	-0.5556441	0.93396728	0.08890512	-0.73244635	0.92986881	-0.069438852	-0.62093206	1.3976151	-0.19063478	-0.62362305	1.382814	0.13620987	-0.70977188	1.4157694	-0.031384109	-0.74058131	1.0748627	-0.25342841	-0.60879453	1.0254155	0.19788344	-0.61992092	0.86363265	-0.28378212	-0.39623166	0.8983593	0.16568702
136	0.54	-0.12071178	0.11093232	-0.15428537	-0.70806292	0.038686298	0.0031706618	-0.25896477	0.085893424	-0.15309533	-0.84771032	0.054457067	0.039295163	-0.23895281	0.12553545	-0.079895906	-0.82897585	0.081440191	-0.045787993	-0.29467865	0.042141238	-0.091355419	-0.90035383	0.032278526	-0.0098226245	-0.38380504	0.45959897	-0.1852243	-0.70790946	0.43645024	0.088062697	-0.35407425	0.44240445	-0.067395856	-0.69961687	0.44021171	-0.041821273	-0.54505812	0.80708754	-0.22772457	-0.63905942	0.84534647	0.14826232	-0.50822464	0.92185682	-0.15425618	-0.55065324	0.932628	0.089030525	-0.725075	0.9283591	-0.071448609	-0.6154404	1.396113	-0.19085057	-0.6184014	1.381261	0.13609574	-0.70445244	1.4142099	-0.031586842	-0.73624357	1.0737612	-0.2532811	-0.60193521	1.0237244	0.19769237	-0.61668759	0.86203484	-0.28423316	-0.38811637	0.8987834	0.1642153
137	0.544	-0.10906972	0.11374113	-0.15335135	-0.7080322	0.038644775	0.0032067487	-0.2468408	0.086473606	-0.15349535	-0.84752468	0.054551833	0.039130164	-0.22793447	0.12614879	-0.079903845	-0.82873247	0.081383596	-0.045923853	-0.28229251	0.041816271	-0.092249867	-0.9003155	0.032515117	-0.010061298	-0.37692651	0.45841697	-0.18491169	-0.70515235	0.43549929	0.08763161	-0.34719921	0.44169975	-0.067036468	-0.69588821	0.43902988	-0.042112415	-0.53821199	0.80536162	-0.22765012	-0.63437619	0.84415031	0.14748582	-0.50152769	0.92028156	-0.15424162	-0.54563458	0.93124966	0.089184836	-0.718067	0.92674165	-0.073188556	-0.60987293	1.3945508	-0.19104492	-0.61315571	1.3796795	0.13595864	-0.69921685	1.4126305	-0.031799633	-0.73187233	1.0726392	-0.25316472	-0.59509404	1.0220023	0.19745534	-0.6132652	0.86041759	-0.2846282	-0.38008043	0.89916643	0.16275525
138	0.548	-0.097927993	0.11633299	-0.15247458	-0.70799305	0.038604526	0.0032314327	-0.23516318	0.087163027	-0.15425911	-0.84738157	0.054665491	0.038952004	-0.2174238	0.12654914	-0.079909799	-0.82846835	0.081333709	-0.0460996	-0.27046589	0.041371129	-0.093290448	-0.90026698	0.032785232	-0.01030634	-0.3700581	0.45724865	-0.1845627	-0.70232706	0.43451688	0.08714006	-0.34030569	0.44101213	-0.06662168	-0.69207364	0.43787516	-0.042461218	-0.53138782	0.80360681	-0.22756876	-0.6298271	0.84291567	0.14685788	-0.4947186	0.91859539	-0.15452551	-0.54057226	0.92983202	0.089375312	-0.71149132	0.9250269	-0.074941386	-0.60425262	1.3929531	-0.19124219	-0.60788327	1.3780753	0.13580565	-0.69394021	1.4110411	-0.032062359	-0.72746081	1.0714992	-0.25306214	-0.58826348	1.020253	0.19716107	-0.60973451	0.85877537	-0.28495666	-0.37212154	0.89951368	0.16130915
139	0.552	-0.087280168	0.11867179	-0.15164875	-0.70794547	0.038571258	0.0032448417	-0.22392214	0.087939552	-0.15535672	-0.84725824	0.054812656	0.038756249	-0.20740861	0.12673763	-0.079917482	-0.82818007	0.081294889	-0.046323405	-0.25919643	0.040810994	-0.094460881	-0.90021109	0.033089309	-0.01054571	-0.36320391	0.45607902	-0.1841907	-0.69939413	0.43350891	0.086614285	-0.33342088	0.44030461	-0.066166899	-0.68815869	0.43676332	-0.042833478	-0.52455108	0.80184695	-0.22748577	-0.62536608	0.84164686	0.14633653	-0.48792477	0.91686047	-0.15480674	-0.53546603	0.92837645	0.089599403	-0.70537703	0.92335846	-0.076891015	-0.59858626	1.3913373	-0.19146676	-0.60259182	1.376455	0.1356443	-0.68840992	1.4094525	-0.032429111	-0.72300351	1.0703382	-0.25296276	-0.5814425	1.0184882	0.19680341	-0.60622655	0.85710143	-0.28526395	-0.36422655	0.89982622	0.15986896
140	0.556	-0.077123313	0.12073721	-0.15085683	-0.70789145	0.038546942	0.0032479936	-0.21314635	0.088679596	-0.15656902	-0.84713604	0.055001977	0.038537622	-0.19788027	0.12672037	-0.07993616	-0.82787285	0.081274446	-0.04658982	-0.24852628	0.040152259	-0.095825161	-0.90014825	0.033427364	-0.010789623	-0.35636551	0.45489375	-0.18381446	-0.69637827	0.43247118	0.086066183	-0.32657577	0.43954876	-0.065686777	-0.68419402	0.43568368	-0.043229575	-0.51766051	0.80009764	-0.22738921	-0.62093794	0.84035177	0.14587464	-0.48134878	0.91517575	-0.15464936	-0.53033242	0.92688179	0.089836214	-0.69961528	0.92191357	-0.078676642	-0.59286891	1.3897099	-0.19173144	-0.5972838	1.3748229	0.13546844	-0.68260074	1.4078793	-0.032899188	-0.71849614	1.0691517	-0.25287666	-0.5746389	1.016722	0.1963842	-0.60283829	0.85538913	-0.28565794	-0.35638602	0.90009677	0.1584243
141	0.56	-0.067448435	0.12251509	-0.15008425	-0.70783262	0.03852696	0.0032416219	-0.20288236	0.089231236	-0.15763034	-0.84701184	0.055229508	0.038291264	-0.188819	0.12650427	-0.079965139	-0.82755307	0.081278334	-0.046890361	-0.23842326	0.03940412	-0.097342643	-0.90007639	0.033800352	-0.011054196	-0.34951387	0.45369077	-0.18346792	-0.69331099	0.43141347	0.085485265	-0.31980905	0.43872601	-0.065196656	-0.68025846	0.43460903	-0.043666498	-0.5106845	0.7983637	-0.22726385	-0.61649967	0.83903516	0.14544359	-0.47506513	0.91360447	-0.15391764	-0.52519334	0.92534428	0.090066498	-0.69377488	0.92062365	-0.079763041	-0.58710032	1.3880723	-0.19203659	-0.59194995	1.3731811	0.13526373	-0.67678933	1.406326	-0.033399601	-0.71393559	1.0679434	-0.25281819	-0.56785469	1.0149578	0.19590143	-0.59952941	0.85363563	-0.2862403	-0.34860431	0.90032031	0.15697405
142	0.564	-0.058238352	0.12397983	-0.14932997	-0.70776813	0.038504256	0.0032259727	-0.19315216	0.089513262	-0.15842739	-0.84688525	0.055489913	0.038009337	-0.18020205	0.12609398	-0.07999716	-0.82721377	0.081306984	-0.047221745	-0.22879739	0.038577971	-0.098912019	-0.89999344	0.034216798	-0.011348801	-0.3425982	0.4524863	-0.18318299	-0.6901956	0.43035392	0.084853513	-0.31315161	0.43782278	-0.064707699	-0.67640936	0.43351462	-0.04415471	-0.50360669	0.79664641	-0.22711163	-0.61202673	0.83768943	0.14503533	-0.46891665	0.91208807	-0.15292334	-0.52006327	0.92376171	0.090293104	-0.68762687	0.91927859	-0.080277287	-0.58128714	1.3864231	-0.19237613	-0.58658282	1.3715295	0.13502652	-0.67123983	1.4047677	-0.033871738	-0.70931692	1.0667259	-0.25277631	-0.56106856	1.013181	0.19533581	-0.59615091	0.85185301	-0.28701604	-0.3408886	0.90050205	0.15552422
